<?xml version="1.0" encoding="utf-8"?>
<!-- Generator: Adobe Illustrator 22.0.0, SVG Export Plug-In . SVG Version: 6.00 Build 0)  -->
<svg version="1.1" id="Capa_1" xmlns="http://www.w3.org/2000/svg" xmlns:xlink="http://www.w3.org/1999/xlink" x="0px" y="0px"
	 viewBox="0 0 50 22" style="enable-background:new 0 0 50 22;" xml:space="preserve">
<style type="text/css">
	.st0{fill:#40403F;}
	.st1{fill:#2C8BCA;}
</style>
<g>
	<path class="st0" d="M9.096,8.965C9.041,8.91,9.013,8.841,9.013,8.756V0.351c0-0.093,0.027-0.164,0.082-0.215
		C9.15,0.085,9.22,0.06,9.304,0.06h0.583c0.093,0,0.164,0.025,0.215,0.076c0.051,0.051,0.076,0.123,0.076,0.215V3.3
		c0.245-0.312,0.534-0.551,0.867-0.715c0.333-0.165,0.745-0.247,1.234-0.247c0.81,0,1.441,0.26,1.892,0.778
		c0.452,0.519,0.677,1.205,0.677,2.057v3.582c0,0.084-0.027,0.154-0.082,0.209c-0.055,0.055-0.125,0.082-0.209,0.082h-0.595
		c-0.084,0-0.154-0.027-0.209-0.082c-0.055-0.055-0.082-0.124-0.082-0.209V5.25c0-0.607-0.148-1.08-0.443-1.417
		c-0.296-0.337-0.722-0.506-1.279-0.506c-0.54,0-0.97,0.17-1.291,0.512c-0.321,0.342-0.481,0.812-0.481,1.411v3.506
		c0,0.084-0.028,0.154-0.082,0.209C10.04,9.02,9.971,9.047,9.887,9.047H9.304C9.22,9.047,9.15,9.02,9.096,8.965z"/>
	<path class="st0" d="M17.361,8.92c-0.35-0.168-0.629-0.399-0.835-0.69c-0.207-0.291-0.31-0.614-0.31-0.968
		c0-0.557,0.228-1.013,0.683-1.367c0.456-0.355,1.076-0.591,1.861-0.709l1.898-0.266V4.554c0-0.869-0.502-1.304-1.506-1.304
		c-0.388,0-0.701,0.078-0.937,0.234c-0.236,0.156-0.409,0.34-0.519,0.551c-0.033,0.084-0.07,0.141-0.108,0.171
		c-0.038,0.029-0.091,0.044-0.158,0.044h-0.493c-0.076,0-0.142-0.027-0.196-0.082c-0.055-0.055-0.082-0.121-0.082-0.196
		c0-0.194,0.091-0.42,0.272-0.677c0.182-0.257,0.462-0.481,0.842-0.671c0.38-0.19,0.844-0.285,1.392-0.285
		c0.945,0,1.622,0.219,2.032,0.658c0.409,0.439,0.613,0.987,0.613,1.646v4.114c0,0.084-0.027,0.154-0.082,0.209
		c-0.055,0.055-0.125,0.082-0.209,0.082h-0.557c-0.084,0-0.152-0.027-0.202-0.082c-0.051-0.055-0.076-0.124-0.076-0.209V8.199
		c-0.185,0.279-0.456,0.511-0.81,0.696s-0.81,0.279-1.367,0.279C18.093,9.174,17.711,9.089,17.361,8.92z M20.127,7.705
		c0.354-0.363,0.532-0.89,0.532-1.582V5.769l-1.481,0.215c-0.608,0.084-1.068,0.228-1.38,0.43S17.33,6.87,17.33,7.174
		c0,0.346,0.141,0.612,0.424,0.797c0.283,0.186,0.618,0.279,1.006,0.279C19.317,8.25,19.773,8.069,20.127,7.705z"/>
	<path class="st0" d="M23.728,8.965c-0.055-0.055-0.082-0.124-0.082-0.209v-6c0-0.084,0.027-0.154,0.082-0.209
		c0.055-0.055,0.124-0.082,0.209-0.082h0.544c0.093,0,0.165,0.026,0.215,0.076s0.076,0.123,0.076,0.215v0.557
		c0.253-0.312,0.546-0.553,0.88-0.722c0.334-0.168,0.749-0.253,1.247-0.253c0.81,0,1.439,0.26,1.886,0.778
		c0.447,0.519,0.671,1.205,0.671,2.057v3.582c0,0.084-0.028,0.154-0.082,0.209c-0.055,0.055-0.125,0.082-0.209,0.082h-0.582
		c-0.084,0-0.154-0.027-0.209-0.082c-0.055-0.055-0.082-0.124-0.082-0.209V5.25c0-0.607-0.148-1.08-0.443-1.417
		c-0.295-0.337-0.717-0.506-1.265-0.506c-0.54,0-0.97,0.17-1.291,0.512S24.81,4.651,24.81,5.25v3.506
		c0,0.084-0.027,0.154-0.082,0.209c-0.055,0.055-0.124,0.082-0.209,0.082h-0.583C23.852,9.047,23.782,9.02,23.728,8.965z"/>
	<path class="st0" d="M32.069,8.889c-0.401-0.19-0.698-0.407-0.893-0.652c-0.194-0.245-0.291-0.447-0.291-0.608
		c0-0.084,0.029-0.149,0.089-0.196c0.059-0.046,0.122-0.07,0.19-0.07h0.532c0.05,0,0.091,0.009,0.12,0.026
		c0.029,0.017,0.07,0.055,0.121,0.114c0.194,0.236,0.411,0.422,0.652,0.557c0.241,0.135,0.563,0.202,0.968,0.202
		c0.456,0,0.821-0.084,1.095-0.253c0.274-0.169,0.412-0.414,0.412-0.734c0-0.211-0.059-0.38-0.177-0.506
		c-0.118-0.126-0.315-0.241-0.589-0.341c-0.275-0.101-0.681-0.211-1.222-0.329c-0.734-0.16-1.253-0.392-1.556-0.696
		c-0.304-0.304-0.456-0.696-0.456-1.177c0-0.312,0.093-0.614,0.279-0.905c0.185-0.291,0.462-0.527,0.829-0.709
		c0.367-0.181,0.804-0.272,1.31-0.272c0.532,0,0.985,0.089,1.361,0.266c0.375,0.177,0.658,0.384,0.848,0.62
		c0.19,0.236,0.285,0.435,0.285,0.595c0,0.076-0.027,0.139-0.082,0.19c-0.055,0.05-0.121,0.076-0.196,0.076h-0.481
		c-0.118,0-0.202-0.046-0.253-0.139c-0.144-0.16-0.264-0.285-0.361-0.373c-0.097-0.089-0.238-0.165-0.424-0.228
		C33.991,3.282,33.759,3.25,33.48,3.25c-0.414,0-0.73,0.087-0.949,0.26c-0.22,0.173-0.329,0.403-0.329,0.69
		c0,0.177,0.046,0.328,0.139,0.45c0.093,0.123,0.27,0.236,0.532,0.341c0.262,0.106,0.65,0.213,1.165,0.323
		c0.802,0.169,1.369,0.409,1.703,0.722c0.333,0.312,0.5,0.713,0.5,1.203c0,0.363-0.103,0.692-0.31,0.987
		c-0.207,0.295-0.515,0.527-0.924,0.696c-0.409,0.169-0.897,0.253-1.462,0.253C32.961,9.174,32.47,9.079,32.069,8.889z"/>
</g>
<g>
	<path class="st1" d="M4.974,8.718L0.423,5.582C0.267,5.485,0.158,5.385,0.095,5.283C0.031,5.181,0,5.062,0,4.926V4.678
		C0,4.542,0.031,4.423,0.095,4.32c0.063-0.102,0.173-0.207,0.328-0.313L4.974,0.87c0.02-0.009,0.068-0.036,0.146-0.08
		c0.078-0.044,0.146-0.066,0.204-0.066c0.088,0,0.161,0.027,0.219,0.08C5.601,0.858,5.63,0.929,5.63,1.017v0.598
		c0,0.107-0.027,0.195-0.08,0.263C5.497,1.945,5.412,2.018,5.295,2.096L1.357,4.794l3.939,2.698C5.421,7.58,5.509,7.659,5.557,7.726
		C5.606,7.795,5.63,7.877,5.63,7.974v0.598c0,0.097-0.029,0.173-0.088,0.226c-0.058,0.054-0.131,0.08-0.219,0.08
		C5.256,8.879,5.139,8.825,4.974,8.718z"/>
</g>
<g>
	<path class="st1" d="M44.457,21.844c-0.059-0.059-0.088-0.132-0.088-0.219v-0.597c0-0.098,0.024-0.18,0.073-0.248
		c0.049-0.068,0.136-0.146,0.263-0.234l3.939-2.698l-3.939-2.699c-0.116-0.078-0.202-0.15-0.255-0.218
		c-0.054-0.068-0.08-0.156-0.08-0.263V14.07c0-0.088,0.027-0.158,0.08-0.212c0.053-0.054,0.124-0.08,0.211-0.08
		c0.059,0,0.129,0.022,0.212,0.066c0.082,0.044,0.133,0.071,0.153,0.08l4.551,3.137c0.155,0.107,0.265,0.211,0.328,0.313
		C49.968,17.476,50,17.594,50,17.73v0.248c0,0.136-0.032,0.255-0.095,0.357c-0.063,0.102-0.173,0.202-0.328,0.299l-4.551,3.137
		c-0.156,0.107-0.277,0.161-0.365,0.161C44.583,21.932,44.515,21.902,44.457,21.844z"/>
</g>
<g>
	<path class="st0" d="M18.443,21.798c-0.055-0.055-0.082-0.124-0.082-0.208v-5.317h-1.088c-0.084,0-0.155-0.025-0.209-0.076
		c-0.055-0.05-0.082-0.118-0.082-0.202V15.59c0-0.084,0.027-0.154,0.082-0.209c0.055-0.055,0.125-0.082,0.209-0.082h1.088v-0.632
		c0-0.683,0.166-1.213,0.5-1.589c0.333-0.375,0.88-0.563,1.639-0.563h0.747c0.084,0,0.154,0.027,0.209,0.082
		c0.055,0.055,0.082,0.124,0.082,0.209v0.405c0,0.084-0.028,0.152-0.082,0.203c-0.055,0.05-0.125,0.076-0.209,0.076h-0.721
		c-0.388,0-0.658,0.101-0.81,0.304c-0.152,0.202-0.228,0.515-0.228,0.937v0.569h1.633c0.084,0,0.153,0.028,0.209,0.082
		c0.055,0.055,0.082,0.125,0.082,0.209v0.405c0,0.084-0.027,0.152-0.082,0.202c-0.055,0.051-0.125,0.076-0.209,0.076h-1.633v5.317
		c0,0.084-0.027,0.153-0.082,0.208c-0.055,0.056-0.125,0.082-0.209,0.082h-0.544C18.567,21.881,18.498,21.854,18.443,21.798z"/>
	<path class="st0" d="M22.956,21.204c-0.515-0.536-0.797-1.268-0.848-2.196l-0.012-0.431l0.012-0.417
		c0.051-0.912,0.333-1.638,0.848-2.178c0.515-0.54,1.203-0.81,2.063-0.81c0.928,0,1.648,0.295,2.158,0.886
		c0.51,0.591,0.766,1.392,0.766,2.405v0.229c0,0.084-0.027,0.153-0.082,0.208c-0.055,0.056-0.125,0.082-0.209,0.082h-4.392v0.114
		c0.025,0.548,0.194,1.017,0.506,1.405c0.312,0.388,0.726,0.582,1.24,0.582c0.397,0,0.72-0.078,0.968-0.234
		c0.249-0.157,0.437-0.318,0.563-0.487c0.076-0.102,0.135-0.163,0.177-0.183c0.042-0.022,0.114-0.032,0.215-0.032h0.557
		c0.076,0,0.141,0.021,0.196,0.063c0.055,0.042,0.082,0.098,0.082,0.165c0,0.185-0.114,0.409-0.342,0.671
		c-0.228,0.262-0.551,0.487-0.968,0.678c-0.418,0.19-0.897,0.284-1.436,0.284C24.158,22.007,23.47,21.739,22.956,21.204z
		 M26.791,18.122v-0.038c0-0.591-0.16-1.072-0.481-1.443c-0.321-0.371-0.751-0.557-1.291-0.557c-0.549,0-0.979,0.186-1.291,0.557
		s-0.468,0.852-0.468,1.443v0.038H26.791z"/>
	<path class="st0" d="M29.582,21.798c-0.055-0.055-0.082-0.124-0.082-0.208v-8.406c0-0.093,0.027-0.164,0.082-0.215
		c0.055-0.05,0.124-0.076,0.209-0.076h0.557c0.084,0,0.154,0.027,0.209,0.082c0.055,0.055,0.082,0.125,0.082,0.209v8.406
		c0,0.084-0.028,0.153-0.082,0.208c-0.055,0.056-0.125,0.082-0.209,0.082h-0.557C29.706,21.881,29.637,21.854,29.582,21.798z"/>
	<path class="st0" d="M32.518,13.976c-0.055-0.055-0.082-0.124-0.082-0.209v-0.658c0-0.084,0.027-0.156,0.082-0.215
		c0.055-0.059,0.125-0.089,0.209-0.089h0.747c0.084,0,0.156,0.03,0.215,0.089c0.059,0.059,0.089,0.131,0.089,0.215v0.658
		c0,0.084-0.03,0.154-0.089,0.209c-0.059,0.055-0.131,0.082-0.215,0.082h-0.747C32.643,14.058,32.573,14.031,32.518,13.976z
		 M32.62,21.798c-0.055-0.055-0.082-0.124-0.082-0.208v-6c0-0.084,0.027-0.154,0.082-0.209c0.055-0.055,0.124-0.082,0.209-0.082
		h0.557c0.084,0,0.154,0.028,0.209,0.082c0.055,0.055,0.082,0.125,0.082,0.209v6c0,0.084-0.027,0.153-0.082,0.208
		c-0.055,0.056-0.125,0.082-0.209,0.082h-0.557C32.744,21.881,32.674,21.854,32.62,21.798z"/>
	<path class="st0" d="M35.082,21.805c-0.051-0.052-0.076-0.114-0.076-0.191c0-0.076,0.029-0.156,0.089-0.24l2.203-2.861
		l-2.063-2.722c-0.068-0.093-0.101-0.169-0.101-0.228c0-0.076,0.027-0.14,0.082-0.19c0.055-0.05,0.116-0.076,0.183-0.076h0.608
		c0.127,0,0.236,0.068,0.329,0.203l1.709,2.215l1.708-2.215c0.051-0.067,0.099-0.118,0.146-0.152
		c0.046-0.033,0.108-0.051,0.183-0.051h0.583c0.067,0,0.127,0.026,0.177,0.076c0.05,0.05,0.076,0.11,0.076,0.177
		c0,0.084-0.029,0.164-0.089,0.241l-2.089,2.747l2.202,2.836c0.059,0.084,0.089,0.164,0.089,0.24c0,0.076-0.025,0.139-0.076,0.191
		c-0.05,0.05-0.114,0.075-0.19,0.075h-0.62c-0.127,0-0.236-0.063-0.329-0.19l-1.81-2.341l-1.81,2.341
		c-0.05,0.059-0.099,0.105-0.145,0.139c-0.046,0.034-0.108,0.05-0.184,0.05h-0.595C35.196,21.881,35.132,21.856,35.082,21.805z"/>
</g>
</svg>
