<svg xmlns="http://www.w3.org/2000/svg" width="299" height="39" shape-rendering="geometricPrecision" text-rendering="geometricPrecision" image-rendering="optimizeQuality" fill-rule="evenodd" clip-rule="evenodd" viewBox="0 0 40.75 5.38"><path fill="none" d="M.16 5.21V.16h1.69v1.69h1.68v1.68h1.68v1.68H6.9V.16h1.68v1.69h1.69v1.68h1.68v1.68h1.69V.16h1.68v1.69m25.27 3.36h-1.68m-1.69-1.68h1.69v1.68m-3.37-3.36h1.68v1.68M33.85.16h1.69v1.69M33.85.16v5.05h-1.68m-1.69-1.68h1.69v1.68M28.8 1.85h1.68v1.68M27.11.16h1.69v1.69M27.11.16v5.05h-1.68m-1.68-1.68h1.68v1.68m-3.37-3.36h1.69v1.68M20.38.16h1.68v1.69M20.38.16v5.05h-1.69m-1.68-1.68h1.68v1.68m-3.37-3.36h1.69v1.68"/></svg>