<svg xmlns="http://www.w3.org/2000/svg" width="85" height="124" shape-rendering="geometricPrecision" text-rendering="geometricPrecision" image-rendering="optimizeQuality" fill-rule="evenodd" clip-rule="evenodd" viewBox="0 0 6.93 10.08"><path fill-rule="nonzero" d="M1.49 0c.42 0 .79.17 1.06.44a1.482 1.482 0 010 2.11c-.19.19-.43.33-.7.39v2.69c.21-.08.39-.11.44-.12H4.64s.25 0 .33-.15c.12-.23.11-.5.11-.54l-.01-.04v-.5c-.26-.07-.5-.21-.69-.4a1.482 1.482 0 010-2.11 1.488 1.488 0 012.11 0 1.488 1.488 0 010 2.11c-.19.19-.43.33-.69.4v.51c0 .12-.01.53-.19.9-.27.53-.97.54-.97.54H2.37c-.1.02-.52.1-.52.45v.45c.27.07.51.21.7.4a1.482 1.482 0 010 2.11 1.488 1.488 0 01-2.11 0 1.488 1.488 0 010-2.11l.02-.02c.19-.18.42-.31.67-.38V2.94c-.26-.06-.5-.2-.69-.39l-.02-.02A1.483 1.483 0 01.44.44L.46.42C.73.16 1.09 0 1.49 0zm.55 8.04a.77.77 0 00-1.08-.02l-.01.02a.764.764 0 000 1.09.764.764 0 001.09 0 .764.764 0 000-1.09zm3.94-5.76a.764.764 0 00-1.09 0 .764.764 0 000 1.09.764.764 0 001.09 0 .764.764 0 000-1.09zM2.04.95A.77.77 0 00.96.93L.95.95c-.14.14-.23.33-.23.54 0 .21.08.4.21.54l.02.01a.764.764 0 001.09 0 .764.764 0 000-1.09z"/></svg>