<svg xmlns="http://www.w3.org/2000/svg" width="466" height="88" shape-rendering="geometricPrecision" text-rendering="geometricPrecision" image-rendering="optimizeQuality" fill-rule="evenodd" clip-rule="evenodd" viewBox="0 0 177.53 33.39"><g fill-rule="nonzero"><path d="M.67.33c.44-.44 1.16-.44 1.59 0 .44.44.44 1.15 0 1.59l-.06.06c-.44.44-1.15.44-1.59 0C.17 1.54.17.83.61.39L.67.33zM2.2 11.35c-.44.44-1.15.44-1.59 0-.44-.44-.44-1.15 0-1.59L9.98.39c.44-.44 1.15-.44 1.59 0 .44.44.44 1.15 0 1.59L2.2 11.35zM1.92 21c-.44.43-1.15.43-1.59 0-.44-.44-.44-1.16 0-1.59L19.34.39c.44-.44 1.15-.44 1.59 0 .44.44.44 1.15 0 1.59L1.92 21zM2.2 30.08c-.44.44-1.15.44-1.59 0-.44-.44-.44-1.15 0-1.59L28.71.39c.44-.44 1.15-.44 1.59 0 .44.44.44 1.15 0 1.59L2.2 30.08zM8.58 33.06c-.43.44-1.15.44-1.59 0-.43-.44-.43-1.15 0-1.59L38.07.39c.44-.44 1.15-.44 1.59 0 .44.44.44 1.15 0 1.59L8.58 33.06zM17.95 33.06c-.44.44-1.15.44-1.59 0-.44-.44-.44-1.15 0-1.59L47.44.39c.44-.44 1.15-.44 1.59 0 .44.44.44 1.15 0 1.59L17.95 33.06zM27.32 33.06c-.44.44-1.16.44-1.6 0-.43-.44-.43-1.15 0-1.59L56.8.39c.44-.44 1.15-.44 1.59 0 .44.44.44 1.15 0 1.59L27.32 33.06zM36.68 33.06c-.44.44-1.15.44-1.59 0-.44-.44-.44-1.15 0-1.59L66.17.39c.44-.44 1.15-.44 1.59 0 .44.44.44 1.15 0 1.59L36.68 33.06zM46.05 33.06c-.44.44-1.16.44-1.59 0-.44-.44-.44-1.15 0-1.59L75.53.39c.44-.44 1.16-.44 1.59 0 .44.44.44 1.15 0 1.59L46.05 33.06zM55.41 33.06c-.44.44-1.15.44-1.59 0-.44-.44-.44-1.15 0-1.59L84.9.39c.44-.44 1.15-.44 1.59 0 .44.44.44 1.15 0 1.59L55.41 33.06zM64.78 33.06c-.44.44-1.15.44-1.59 0-.44-.44-.44-1.15 0-1.59L94.26.39c.44-.44 1.16-.44 1.6 0 .43.44.43 1.15 0 1.59L64.78 33.06zM74.14 33.06c-.44.44-1.15.44-1.59 0-.44-.44-.44-1.15 0-1.59L103.63.39c.44-.44 1.15-.44 1.59 0 .44.44.44 1.15 0 1.59L74.14 33.06zM83.51 33.06c-.44.44-1.15.44-1.59 0-.44-.44-.44-1.15 0-1.59L113 .39c.43-.44 1.15-.44 1.59 0 .44.44.44 1.15 0 1.59L83.51 33.06zM92.87 33.06c-.44.44-1.15.44-1.59 0-.44-.44-.44-1.15 0-1.59L122.36.39c.44-.44 1.15-.44 1.59 0 .44.44.44 1.15 0 1.59L92.87 33.06zM102.24 33.06c-.44.44-1.15.44-1.59 0-.44-.44-.44-1.15 0-1.59L131.73.39c.44-.44 1.15-.44 1.59 0 .44.44.44 1.15 0 1.59l-31.08 31.08zM111.6 33.06c-.44.44-1.15.44-1.59 0-.44-.44-.44-1.15 0-1.59L141.09.39c.44-.44 1.15-.44 1.59 0 .44.44.44 1.15 0 1.59L111.6 33.06zM120.97 33.06c-.44.44-1.15.44-1.59 0-.44-.44-.44-1.15 0-1.59L150.46.39c.44-.44 1.15-.44 1.59 0 .44.44.44 1.15 0 1.59l-31.08 31.08zM130.33 33.06c-.43.44-1.15.44-1.59 0-.43-.44-.43-1.15 0-1.59L159.82.39c.44-.44 1.15-.44 1.59 0 .44.44.44 1.15 0 1.59l-31.08 31.08zM139.7 33.06c-.44.44-1.15.44-1.59 0-.44-.44-.44-1.15 0-1.59L169.19.39c.44-.44 1.15-.44 1.59 0 .44.44.44 1.15 0 1.59L139.7 33.06zM149.07 33.06c-.44.44-1.16.44-1.6 0-.43-.44-.43-1.15 0-1.59l28.1-28.09c.44-.44 1.15-.44 1.59 0 .44.43.44 1.15 0 1.59l-28.09 28.09zM158.43 33.06c-.44.44-1.15.44-1.59 0-.44-.44-.44-1.15 0-1.59l18.73-18.73c.44-.44 1.15-.44 1.59 0 .44.44.44 1.15 0 1.59l-18.73 18.73zM167.8 33.06c-.44.44-1.16.44-1.59 0-.44-.44-.44-1.15 0-1.59l9.36-9.36c.44-.44 1.15-.44 1.59 0 .44.43.44 1.15 0 1.59l-9.36 9.36zM175.61 31.43c.44-.44 1.15-.44 1.59 0 .44.44.44 1.15 0 1.59l-.04.04c-.44.44-1.15.44-1.59 0-.44-.44-.44-1.15 0-1.59l.04-.04z"/></g></svg>