<svg xmlns="http://www.w3.org/2000/svg" width="235" height="73" shape-rendering="geometricPrecision" text-rendering="geometricPrecision" image-rendering="optimizeQuality" fill-rule="evenodd" clip-rule="evenodd" viewBox="0 0 39.7 12.41"><path fill-rule="nonzero" d="M0 .61a.606.606 0 111.21 0v8.07l3.93-3.96-1.07-1.07-.89.89c-.04.04-.11.04-.15 0l-.96-.96a.109.109 0 010-.15l.89-.89-.89-.89a.109.109 0 010-.15l.96-.96c.04-.04.11-.04.15 0l.89.89.9-.89c.04-.04.1-.04.14 0l.89.89.9-.89c.04-.04.1-.04.14 0l.9.89.89-.89c.04-.04.1-.04.14 0l.97.96c.04.04.04.11 0 .15l-.9.89.83.82.89-.89c.04-.04.11-.04.14 0l.97.96c.04.04.04.11 0 .15l-.89.89.89.9c.04.04.04.1 0 .14l-.89.89.89.9c.04.04.04.1 0 .14l-.89.9.89.89c.04.04.04.1 0 .14l-.97.97c-.03.04-.1.04-.14 0l-.89-.9-.9.9c-.04.04-.1.04-.14 0l-.97-.97a.097.097 0 010-.14l.9-.89-1.05-1.05-3.83 3.9h8.95V.61c0-.34.27-.61.61-.61h10.99c.16 0 .31.06.43.18a.6.6 0 01.01.85l-4.85 4.95.86.85 4.93-4.96a.6.6 0 01.46-.22c.33 0 .6.28.6.61v6.42l3.93-3.96-1.07-1.07-.89.89c-.04.04-.11.04-.15 0l-.96-.96a.109.109 0 010-.15l.89-.89-.89-.89a.109.109 0 010-.15l.96-.96c.04-.04.11-.04.15 0l.89.89.9-.89c.04-.04.1-.04.14 0l.89.89.9-.89c.04-.04.1-.04.14 0l.9.89.89-.89c.04-.04.1-.04.14 0l.97.96c.04.04.04.11 0 .15l-.9.89.83.82.89-.89c.04-.04.11-.04.14 0l.97.96c.04.04.04.11 0 .15l-.89.89.89.9c.04.04.04.1 0 .14l-.89.89.89.9c.04.04.04.1 0 .14l-.89.9.89.89c.04.04.04.1 0 .14l-.97.97c-.03.04-.1.04-.14 0l-.89-.9-.9.9c-.04.04-.1.04-.14 0l-.97-.97a.097.097 0 010-.14l.9-.89-1.05-1.05-3.83 3.9h8.95V.61c0-.34.27-.61.61-.61h.6v11.8c0 .34-.27.61-.6.61h-11c-.15 0-.31-.06-.42-.18a.592.592 0 01-.01-.85l4.85-4.95-.86-.86-4.93 4.97c-.11.13-.28.21-.46.21-.34 0-.61-.27-.61-.6V3.73l-3.93 3.96 1.07 1.07.9-.9c.04-.04.1-.04.14 0l.97.97c.04.04.04.1 0 .14l-.9.9.9.89c.04.04.04.11 0 .14l-.97.97c-.04.04-.1.04-.14 0l-.9-.89-.89.89c-.04.04-.11.04-.15 0l-.89-.89-.89.89c-.04.04-.11.04-.15 0l-.89-.89-.9.89c-.04.04-.1.04-.14 0l-.97-.97c-.03-.03-.03-.1 0-.14l.9-.89-.82-.83-.9.9c-.04.04-.1.04-.14 0L15 8.97a.097.097 0 010-.14l.9-.89-.9-.9a.097.097 0 010-.14l.9-.9-.9-.89c-.04-.04-.04-.11 0-.14l.9-.9-.9-.89a.109.109 0 010-.15l.97-.96c.04-.04.1-.04.14 0l.9.89.89-.89c.04-.04.1-.04.14 0l.97.96c.04.04.04.11 0 .15l-.89.89 1.04 1.05 3.83-3.91h-8.95V11.8c0 .34-.27.61-.6.61h-11c-.15 0-.31-.06-.42-.18a.592.592 0 01-.01-.85l4.84-4.95L6 5.57l-4.93 4.97c-.11.13-.28.21-.46.21-.34 0-.61-.27-.61-.6V.61zm34.76 4.43c.23 0 .42.19.42.42 0 .23-.19.42-.42.42-.23 0-.42-.19-.42-.42 0-.23.19-.42.42-.42zm-2.3-2.1c.23 0 .42.19.42.42 0 .23-.19.42-.42.42-.23 0-.42-.19-.42-.42 0-.23.19-.42.42-.42zm.66.94V2.71H31.8v1.31H33.12v-.14zm1.21.92h-.23v1.32h1.31V4.8h-1.08zM17.78 7.37c-.23 0-.42-.19-.42-.42 0-.23.19-.42.42-.42.23 0 .41.19.41.42 0 .23-.18.42-.41.42zm2.29 2.09c-.23 0-.41-.18-.41-.41 0-.24.18-.42.41-.42a.414.414 0 110 .83zm-.65-.93V9.7h1.31V8.39h-1.31v.14zM18.2 7.6h.23V6.29h-1.31V7.6h1.08zM9.1 5.04c.23 0 .42.19.42.42 0 .23-.19.42-.42.42-.23 0-.42-.19-.42-.42 0-.23.19-.42.42-.42zm-2.3-2.1c.23 0 .42.19.42.42 0 .23-.19.42-.42.42-.23 0-.42-.19-.42-.42 0-.23.19-.42.42-.42zm.66.94V2.71H6.14v1.31H7.46v-.14zm1.21.92h-.23v1.32h1.31V4.8H8.67z"/></svg>